<svg width="87" height="80" viewBox="0 0 87 80" fill="none" xmlns="http://www.w3.org/2000/svg">
<path d="M81.8462 10.1818H66.0513V0H60.3077V10.1818H25.8462V0H20.1026V10.1818H4.30769C3.16563 10.1832 2.07072 10.6433 1.26316 11.4614C0.455602 12.2794 0.00133008 13.3886 0 14.5455V75.6364C0.00133008 76.7933 0.455602 77.9024 1.26316 78.7204C2.07072 79.5385 3.16563 79.9987 4.30769 80H81.8462C82.9882 79.9987 84.0831 79.5385 84.8907 78.7204C85.6982 77.9024 86.1525 76.7933 86.1538 75.6364V14.5455C86.1525 13.3886 85.6982 12.2794 84.8907 11.4614C84.0831 10.6433 82.9882 10.1832 81.8462 10.1818ZM80.4103 74.1818H5.74359V16H20.1026V23.2727H25.8462V16H60.3077V23.2727H66.0513V16H80.4103V74.1818Z" fill="#49A37B"/>
<path d="M40.8149 49.7017L31.0534 39.8135L26.9922 43.9277L40.8149 57.9297L63.3611 35.0906L59.2997 30.9766L40.8149 49.7017Z" fill="#49A37B"/>
</svg>
