<svg width="80" height="80" viewBox="0 0 80 80" fill="none" xmlns="http://www.w3.org/2000/svg">
<path d="M60 0H20C8 0 0 8.36244 0 20.9061V45.9934C0 58.5371 8 66.8995 20 66.8995V75.8055C20 79.1505 23.56 81.1575 26.2 79.2759L44 66.8995H60C72 66.8995 80 58.5371 80 45.9934V20.9061C80 8.36244 72 0 60 0ZM40 50.8854C39.2044 50.8854 38.4413 50.5551 37.8787 49.967C37.3161 49.3789 37 48.5812 37 47.7495C37 46.9178 37.3161 46.1202 37.8787 45.5321C38.4413 44.944 39.2044 44.6136 40 44.6136C40.7956 44.6136 41.5587 44.944 42.1213 45.5321C42.6839 46.1202 43 46.9178 43 47.7495C43 48.5812 42.6839 49.3789 42.1213 49.967C41.5587 50.5551 40.7956 50.8854 40 50.8854ZM45.04 33.5334C43.48 34.6205 43 35.3313 43 36.502V37.3801C43 39.0944 41.64 40.516 40 40.516C38.36 40.516 37 39.0944 37 37.3801V36.502C37 31.6518 40.4 29.2685 41.68 28.3487C43.16 27.3034 43.64 26.5926 43.64 25.5054C43.64 23.4148 42 21.7005 40 21.7005C38 21.7005 36.36 23.4148 36.36 25.5054C36.36 27.2197 35 28.6414 33.36 28.6414C31.72 28.6414 30.36 27.2197 30.36 25.5054C30.36 19.9444 34.68 15.4287 40 15.4287C45.32 15.4287 49.64 19.9444 49.64 25.5054C49.64 30.272 46.28 32.6553 45.04 33.5334Z" fill="#49A37B"/>
</svg>
