<svg width="42" height="42" viewBox="0 0 42 42" fill="none" xmlns="http://www.w3.org/2000/svg">
<path d="M29.7266 0.164062H12.2682C4.6849 0.164062 0.164062 4.6849 0.164062 12.2682V29.7057C0.164062 37.3099 4.6849 41.8307 12.2682 41.8307H29.7057C37.2891 41.8307 41.8099 37.3099 41.8099 29.7266V12.2682C41.8307 4.6849 37.3099 0.164062 29.7266 0.164062ZM20.9974 29.0807C16.5391 29.0807 12.9141 25.4557 12.9141 20.9974C12.9141 16.5391 16.5391 12.9141 20.9974 12.9141C25.4557 12.9141 29.0807 16.5391 29.0807 20.9974C29.0807 25.4557 25.4557 29.0807 20.9974 29.0807ZM33.3307 10.3307C33.2266 10.5807 33.0807 10.8099 32.8932 11.0182C32.6849 11.2057 32.4557 11.3516 32.2057 11.4557C31.8266 11.6167 31.4081 11.661 31.0036 11.5831C30.5992 11.5052 30.2271 11.3085 29.9349 11.0182C29.7474 10.8099 29.6016 10.5807 29.4974 10.3307C29.3904 10.0803 29.3337 9.81134 29.3307 9.53906C29.3307 9.26823 29.3932 8.9974 29.4974 8.7474C29.6016 8.47656 29.7474 8.26823 29.9349 8.0599C30.4141 7.58073 31.1432 7.35156 31.8099 7.4974C31.9557 7.51823 32.0807 7.5599 32.2057 7.6224C32.3307 7.66406 32.4557 7.72656 32.5807 7.8099C32.6849 7.8724 32.7891 7.97656 32.8932 8.0599C33.0807 8.26823 33.2266 8.47656 33.3307 8.7474C33.4349 8.9974 33.4974 9.26823 33.4974 9.53906C33.4974 9.8099 33.4349 10.0807 33.3307 10.3307Z" fill="#49A37B"/>
</svg>
